<?xml version="1.0" encoding="UTF-8" standalone="no"?>
<svg
   viewBox="0 0 106.8919 14.856851"
   version="1.1"
   id="svg1"
   sodipodi:docname="logo-group.svg"
   xml:space="preserve"
   width="106.8919"
   height="14.856851"
   inkscape:version="1.3 (0e150ed6c4, 2023-07-21)"
   xmlns:inkscape="http://www.inkscape.org/namespaces/inkscape"
   xmlns:sodipodi="http://sodipodi.sourceforge.net/DTD/sodipodi-0.dtd"
   xmlns="http://www.w3.org/2000/svg"
   xmlns:svg="http://www.w3.org/2000/svg"><defs
     id="defs1" /><sodipodi:namedview
     id="namedview1"
     pagecolor="#ffffff"
     bordercolor="#000000"
     borderopacity="0.25"
     inkscape:showpageshadow="2"
     inkscape:pageopacity="0.0"
     inkscape:pagecheckerboard="0"
     inkscape:deskcolor="#d1d1d1"
     inkscape:zoom="4.8313954"
     inkscape:cx="81.032491"
     inkscape:cy="-1.5523466"
     inkscape:window-width="1920"
     inkscape:window-height="1009"
     inkscape:window-x="4408"
     inkscape:window-y="-8"
     inkscape:window-maximized="1"
     inkscape:current-layer="svg1" /><g
     id="g2"
     transform="translate(-22.796112,-40.934993)"><path
       d="m 30.513722,52.665038 c -1.843552,-1.301331 -4.247397,-2.674957 -5.042654,-3.289474 -0.686812,-0.433778 -1.337477,-0.957923 -1.662811,-1.463996 -0.524146,-0.849479 -0.668739,-1.608589 -0.614516,-2.241179 -0.253036,0.759109 -0.397629,1.590515 -0.397629,2.42192 0,3.253324 2.024292,6.018644 4.861913,7.157313 l 0.433777,0.162666 c 0.741035,0.253037 1.554367,0.379556 2.385772,0.379556 0.57837,0 1.156738,-0.07224 1.69896,-0.198815 0.01807,-0.524149 -0.144594,-1.861618 -1.662812,-2.927991 z m 2.801475,-11.730045 v 4.626951 h -0.921776 c 0,0 -0.180739,-2.24118 -0.921775,-3.126808 -0.741035,-0.885628 -1.60859,-1.319404 -2.837623,-1.319404 -1.229034,0 -2.168884,0.542222 -2.729178,1.391702 -0.54222,0.831405 -0.777183,2.042365 0.162665,3.560584 0.795258,1.319403 3.759399,2.602659 3.994361,2.69303 0.379555,0.198813 2.132736,1.156738 2.60266,1.662811 0.57837,0.596442 1.951997,1.789328 1.951997,4.175095 2.150808,-1.373618 3.578657,-3.777467 3.578657,-6.506645 -0.01807,-3.235252 -2.024291,-6.018653 -4.879988,-7.157316 z"
       fill="#db0812"
       id="path2"
       style="stroke-width:0.18074" /><g
       id="Ebene_5_Kopie"
       transform="matrix(0.51446486,0,0,0.51446486,45.933134,36.819579)"
       style="fill:#000000;fill-opacity:1">&#10;	<g
   id="g123"
   style="fill:#000000;fill-opacity:1">&#10;		<g
   id="g122"
   style="fill:#000000;fill-opacity:1">&#10;			<path
   class="st3"
   d="m 6.9,17.5 c -0.6,0 -1.1,0.2 -1.5,0.5 -0.4,0.3 -0.5,0.7 -0.5,1.2 0,0.5 0.1,0.8 0.3,1 0.2,0.2 0.8,0.5 1.8,1 1,0.4 1.7,0.9 2.1,1.4 0.4,0.5 0.6,1.2 0.6,2.2 0,1.6 -0.5,2.8 -1.5,3.6 -1,0.8 -2.3,1.3 -3.9,1.3 C 3.6,29.7 3,29.6 2.2,29.5 1.5,29.4 0.9,29.2 0.5,29.1 L 0,28.9 0.5,26.8 c 1.6,0.3 2.8,0.4 3.7,0.4 0.9,0 1.6,-0.2 2,-0.5 C 6.6,26.4 6.8,25.9 6.8,25.1 6.8,24.7 6.7,24.4 6.4,24.2 6.1,24 5.6,23.7 4.6,23.2 3.7,22.8 3,22.3 2.6,21.8 2.2,21.3 2,20.6 2,19.7 c 0,-1.4 0.4,-2.5 1.3,-3.3 0.9,-0.8 2,-1.3 3.5,-1.3 0.7,0 1.4,0.1 2.1,0.2 0.7,0.1 1.3,0.3 1.7,0.4 l 0.6,0.2 -0.5,2 C 9.2,17.6 7.9,17.5 6.9,17.5 Z"
   id="path107"
   style="fill:#000000;fill-opacity:1" />&#10;			<path
   class="st3"
   d="m 9.4,29.5 6.4,-14.2 h 5 L 20.4,29.5 H 17.5 L 17.6,27 h -4.1 l -1.1,2.5 z m 8.1,-11.7 -3,6.7 h 3.2 L 18,17.8 Z"
   id="path108"
   style="fill:#000000;fill-opacity:1" />&#10;			<path
   class="st3"
   d="m 25.5,24.7 c -0.1,0.5 -0.2,1 -0.2,1.4 0,0.4 0.1,0.7 0.4,0.9 0.3,0.2 0.8,0.3 1.5,0.3 0.7,0 1.3,-0.2 1.6,-0.6 0.4,-0.4 0.6,-1 0.9,-2 l 2.2,-9.4 h 2.9 l -2.2,9.4 c -0.4,1.8 -1.1,3.1 -2,3.9 -0.9,0.8 -2.1,1.2 -3.6,1.2 -3,0 -4.6,-1.1 -4.6,-3.2 0,-0.7 0.1,-1.5 0.3,-2.3 l 2.1,-8.9 h 2.9 z"
   id="path109"
   style="fill:#000000;fill-opacity:1" />&#10;			<path
   class="st3"
   d="m 42.2,15.3 c 2.5,0 3.7,1 3.7,3.1 0,0.9 -0.2,1.7 -0.6,2.2 -0.4,0.6 -1,1.1 -1.8,1.6 0.5,0.3 0.9,0.7 1.1,1 0.2,0.4 0.3,0.9 0.3,1.4 0,1.4 -0.5,2.6 -1.5,3.5 -1,0.9 -2.4,1.4 -4.2,1.4 H 34 l 3.3,-14.2 z m -1.5,8.2 H 38.3 L 37.5,27 H 40 c 0.6,0 1.1,-0.2 1.5,-0.6 0.4,-0.4 0.6,-1 0.6,-1.7 -0.1,-0.8 -0.5,-1.2 -1.4,-1.2 z m 1.1,-5.7 h -2.2 l -0.8,3.4 H 41 c 0.6,0 1.1,-0.2 1.4,-0.6 0.4,-0.4 0.6,-0.9 0.6,-1.6 0,-0.8 -0.4,-1.2 -1.2,-1.2 z"
   id="path110"
   style="fill:#000000;fill-opacity:1" />&#10;			<path
   class="st3"
   d="m 45.9,29.5 3.3,-14.2 h 8.3 l -0.6,2.5 h -5.4 l -0.8,3.3 H 55 l -0.6,2.5 H 50.1 L 49.4,27 h 5.5 l -0.6,2.5 z"
   id="path111"
   style="fill:#000000;fill-opacity:1" />&#10;			<path
   class="st3"
   d="m 63.7,15.3 c 1.5,0 2.6,0.3 3.3,1 0.7,0.6 1.1,1.6 1.1,3 0,1.4 -0.3,2.5 -0.9,3.4 -0.6,0.9 -1.4,1.6 -2.3,1.9 l 1.2,4.9 h -2.9 l -1,-4.5 h -2 l -1,4.5 h -2.9 l 3.3,-14.2 z m 0.7,6.3 c 0.4,-0.6 0.7,-1.3 0.7,-2 0,-0.7 -0.1,-1.2 -0.4,-1.5 -0.2,-0.3 -0.6,-0.4 -1.2,-0.4 h -1.6 l -1.1,4.8 h 1.9 c 0.7,0 1.3,-0.3 1.7,-0.9 z"
   id="path112"
   style="fill:#000000;fill-opacity:1" />&#10;			<path
   class="st3"
   d="M 72.5,29.5 75.9,15 h 2.7 L 79.5,27.3 86.2,15 h 2.7 L 85.6,29.5 H 84 l 3,-13 H 86.8 L 80,29 h -1.7 l -1,-12.5 h -0.2 l -3,13 z"
   id="path113"
   style="fill:#000000;fill-opacity:1" />&#10;			<path
   class="st3"
   d="m 94,18.8 c 2.4,0 3.6,1.2 3.6,3.6 0,1.3 -0.2,2.5 -0.6,3.6 -0.4,1.1 -1,2 -1.8,2.7 -0.8,0.7 -1.8,1 -2.8,1 -2.4,0 -3.6,-1.1 -3.6,-3.4 0,-2 0.5,-3.7 1.5,-5.2 0.9,-1.5 2.2,-2.3 3.7,-2.3 z m -1.7,9.6 c 1.1,0 2,-0.6 2.7,-1.8 0.7,-1.2 1,-2.6 1,-4.2 0,-0.7 -0.2,-1.2 -0.5,-1.6 -0.3,-0.4 -0.9,-0.6 -1.5,-0.6 -1.1,0 -2,0.6 -2.7,1.8 -0.7,1.2 -1,2.6 -1,4.3 0,1.4 0.7,2.1 2,2.1 z"
   id="path114"
   style="fill:#000000;fill-opacity:1" />&#10;			<path
   class="st3"
   d="m 100.6,27.4 c 0,0.6 0.3,1 1,1 l 1.6,-0.1 -0.1,1.2 c -0.7,0.2 -1.4,0.3 -2.1,0.3 -0.7,0 -1.2,-0.2 -1.5,-0.5 -0.4,-0.3 -0.6,-0.8 -0.6,-1.4 0,-0.6 0.1,-1.3 0.3,-2.2 l 1.2,-5.2 H 99 l 0.4,-1.4 h 1.4 l 0.7,-3.1 h 1.6 l -0.8,3.1 h 2.9 l -0.3,1.4 H 102 l -1.2,5.2 c -0.1,0.6 -0.2,1.2 -0.2,1.7 z"
   id="path115"
   style="fill:#000000;fill-opacity:1" />&#10;			<path
   class="st3"
   d="m 109.9,18.8 c 2.4,0 3.6,1.2 3.6,3.6 0,1.3 -0.2,2.5 -0.6,3.6 -0.4,1.1 -1,2 -1.8,2.7 -0.8,0.7 -1.8,1 -2.8,1 -2.4,0 -3.6,-1.1 -3.6,-3.4 0,-2 0.5,-3.7 1.5,-5.2 0.9,-1.5 2.2,-2.3 3.7,-2.3 z m -1.7,9.6 c 1.1,0 2,-0.6 2.7,-1.8 0.7,-1.2 1,-2.6 1,-4.2 0,-0.7 -0.2,-1.2 -0.5,-1.6 -0.3,-0.4 -0.9,-0.6 -1.5,-0.6 -1.1,0 -2,0.6 -2.7,1.8 -0.7,1.2 -1,2.6 -1,4.3 0,1.4 0.7,2.1 2,2.1 z"
   id="path116"
   style="fill:#000000;fill-opacity:1" />&#10;			<path
   class="st3"
   d="M 114.1,29.5 116.5,19 h 1.5 l -0.4,1.5 c 1.3,-0.9 2.6,-1.5 3.8,-1.8 l -0.4,1.6 c -0.8,0.2 -1.8,0.6 -3,1.3 l -0.6,0.3 -1.7,7.5 h -1.6 z"
   id="path117"
   style="fill:#000000;fill-opacity:1" />&#10;			<path
   class="st3"
   d="m 128.9,20.5 c -1.3,-0.2 -2.4,-0.3 -3.2,-0.3 -0.8,0 -1.4,0.2 -1.8,0.6 -0.4,0.4 -0.6,0.9 -0.6,1.4 0,0.3 0.1,0.6 0.4,0.8 0.3,0.2 0.8,0.4 1.7,0.6 0.9,0.2 1.6,0.5 2,0.8 0.4,0.3 0.6,0.8 0.6,1.5 0,1.2 -0.4,2.2 -1.3,2.8 -0.9,0.7 -1.9,1 -3.3,1 -0.9,0 -1.8,-0.1 -2.8,-0.4 l -0.5,-0.1 0.3,-1.2 c 1.3,0.2 2.3,0.3 3.2,0.3 0.8,0 1.5,-0.2 2,-0.5 0.5,-0.4 0.8,-0.9 0.8,-1.6 0,-0.4 -0.1,-0.7 -0.4,-0.8 -0.3,-0.2 -0.8,-0.3 -1.7,-0.6 -0.9,-0.2 -1.5,-0.5 -2,-0.8 -0.4,-0.3 -0.6,-0.8 -0.6,-1.4 0,-1.1 0.4,-2 1.2,-2.7 0.8,-0.7 1.8,-1 2.9,-1 1,0 2,0.1 3,0.3 l 0.5,0.1 z"
   id="path118"
   style="fill:#000000;fill-opacity:1" />&#10;			<path
   class="st3"
   d="m 135.7,18.8 c 1.8,0 2.7,1 2.7,3.1 0,1.8 -0.4,3.6 -1.3,5.2 -0.4,0.8 -1,1.4 -1.7,1.9 -0.7,0.5 -1.4,0.7 -2.2,0.7 -0.8,0 -1.6,-0.1 -2.4,-0.3 l -0.4,-0.1 -1.1,4.8 h -1.5 L 131.3,19 h 1.5 l -0.4,1.9 c 0.1,-0.2 0.3,-0.3 0.5,-0.6 0.2,-0.2 0.6,-0.5 1.2,-0.9 0.6,-0.4 1.1,-0.6 1.6,-0.6 z m -0.4,1.4 c -0.4,0 -0.9,0.2 -1.4,0.6 -0.6,0.4 -1,0.8 -1.4,1.2 l -0.5,0.6 -1.3,5.4 c 0.9,0.2 1.7,0.3 2.5,0.3 0.8,0 1.4,-0.4 2,-1.1 0.6,-0.7 1,-1.6 1.3,-2.5 0.3,-0.9 0.4,-1.9 0.4,-2.7 -0.1,-1.2 -0.6,-1.8 -1.6,-1.8 z"
   id="path119"
   style="fill:#000000;fill-opacity:1" />&#10;			<path
   class="st3"
   d="m 144.7,18.8 c 2.4,0 3.6,1.2 3.6,3.6 0,1.3 -0.2,2.5 -0.6,3.6 -0.4,1.1 -1,2 -1.8,2.7 -0.8,0.7 -1.8,1 -2.8,1 -2.4,0 -3.6,-1.1 -3.6,-3.4 0,-2 0.5,-3.7 1.5,-5.2 0.9,-1.5 2.2,-2.3 3.7,-2.3 z m -1.7,9.6 c 1.1,0 2,-0.6 2.7,-1.8 0.7,-1.2 1,-2.6 1,-4.2 0,-0.7 -0.2,-1.2 -0.5,-1.6 -0.3,-0.4 -0.9,-0.6 -1.5,-0.6 -1.1,0 -2,0.6 -2.7,1.8 -0.7,1.2 -1,2.6 -1,4.3 0,1.4 0.7,2.1 2,2.1 z"
   id="path120"
   style="fill:#000000;fill-opacity:1" />&#10;			<path
   class="st3"
   d="M 148.9,29.5 151.3,19 h 1.5 l -0.4,1.5 c 1.3,-0.9 2.6,-1.5 3.8,-1.8 l -0.4,1.6 c -0.8,0.2 -1.8,0.6 -3,1.3 l -0.6,0.3 -1.7,7.5 h -1.6 z"
   id="path121"
   style="fill:#000000;fill-opacity:1" />&#10;			<path
   class="st3"
   d="m 158.2,27.4 c 0,0.6 0.3,1 1,1 l 1.6,-0.1 -0.1,1.2 c -0.7,0.2 -1.4,0.3 -2.1,0.3 -0.7,0 -1.2,-0.2 -1.5,-0.5 -0.4,-0.3 -0.6,-0.8 -0.6,-1.4 0,-0.6 0.1,-1.3 0.3,-2.2 l 1.2,-5.2 h -1.4 l 0.4,-1.4 h 1.4 l 0.7,-3.1 h 1.6 l -0.8,3.1 h 2.9 l -0.3,1.4 h -2.9 l -1.2,5.2 c -0.1,0.6 -0.2,1.2 -0.2,1.7 z"
   id="path122"
   style="fill:#000000;fill-opacity:1" />&#10;		</g>&#10;	</g>&#10;</g></g></svg>
